<svg width="503" height="503" viewBox="0 0 503 503" fill="none" xmlns="http://www.w3.org/2000/svg">
<rect x="251.5" y="0.477051" width="355" height="355" rx="27" transform="rotate(45 251.5 0.477051)" fill="#F71480"/>
<path d="M247.001 211.8V259.708C247.001 270.999 243.947 279.621 237.837 285.576C231.728 291.453 223.067 294.392 211.853 294.392C206.285 294.392 201.297 293.58 196.889 291.956C192.559 290.332 189.001 288.051 186.217 285.112C183.356 288.051 179.76 290.332 175.429 291.956C171.099 293.58 166.188 294.392 160.697 294.392C149.484 294.392 140.823 291.453 134.713 285.576C128.604 279.621 125.549 270.999 125.549 259.708V211.8H144.341V259.128C144.341 265.701 145.695 270.573 148.401 273.744C151.108 276.837 155.129 278.384 160.465 278.384C171.369 278.384 176.821 271.965 176.821 259.128V211.8H195.613V259.128C195.613 271.965 201.104 278.384 212.085 278.384C222.757 278.384 228.093 271.965 228.093 259.128V211.8H247.001ZM293.421 226.88V277.92H307.457V293H260.477V277.92H274.629V226.88H260.477V211.8H307.457V226.88H293.421ZM380.815 234.536C373.855 230.515 366.393 227.924 358.427 226.764V293H339.635V226.764C331.67 227.924 324.169 230.515 317.131 234.536L310.751 220.5C316.319 217.175 322.351 214.661 328.847 212.96C335.343 211.259 342.033 210.408 348.915 210.408C355.875 210.408 362.603 211.259 369.099 212.96C375.673 214.661 381.705 217.175 387.195 220.5L380.815 234.536Z" fill="white"/>
</svg>
